<?xml version="1.0" encoding="utf-8"?>
<!-- Generator: Adobe Illustrator 22.1.0, SVG Export Plug-In . SVG Version: 6.00 Build 0)  -->
<svg version="1.1" id="Lager_1" xmlns="http://www.w3.org/2000/svg" xmlns:xlink="http://www.w3.org/1999/xlink" x="0px" y="0px"
	 viewBox="0 0 874 188.1" style="enable-background:new 0 0 874 188.1;" xml:space="preserve">
<style type="text/css">
	.st0{fill:#E40038;}
	.st1{fill:#1D1D1B;}
</style>
<g>
	<path class="st0" d="M115.8,57.9l-48.3,48.3L41.8,80.3l20.7-20.6c1.1-1.1,2.7-1.8,4.4-1.8H115.8z"/>
	<path class="st0" d="M108.2,171.7H59.1c-1.5,0-2.9-0.5-4-1.4c-0.3-0.3-0.6-0.5-0.8-0.8L7.4,122.6c-0.9-1.1-1.4-2.5-1.4-4
		c0-1.7,0.7-3.2,1.8-4.4l21.4-21.4l25.8,25.8L108.2,171.7z"/>
</g>
<g>
	<path class="st1" d="M134.9,99.6c0-26.5,15.6-41.9,46.7-41.9c23.6,0,38.2,9.4,44,27.9c1.3,3.5,0.2,5.8-3.3,7.1l-7.3,2.3
		c-3.3,1.5-5.6,0.4-7.1-3.3c-3.8-11.7-12.7-17.5-27.1-17.5c-17.7,0-27.1,9-27.1,24.6v31.5c0,15.6,9.4,24.8,27.1,24.8
		c14.4,0,23.4-6,27.3-18.1c1.7-4,3.1-4.8,7.1-3.3l7.3,2.1c3.5,1.5,4.8,3.8,3.5,7.1c-6.9,19.2-22.1,28.8-45.7,28.8
		c-30.2,0-45.5-15.4-45.5-42.1V99.6z"/>
	<path class="st1" d="M242.7,97.7c0-25,17.5-40,46.7-40c29.8,0,46.9,15,46.9,40v34c0,24.8-17.1,39.8-46.9,39.8
		c-29.2,0-46.7-15-46.7-39.8V97.7z M317.7,97.5c0-14.4-10.6-22.9-28.4-22.9c-17.5,0-28.1,8.5-28.1,22.9v34.2
		c0,14.4,10.6,22.9,28.1,22.9c17.7,0,28.4-8.5,28.4-22.9V97.5z"/>
	<path class="st1" d="M355.4,100.2c0-27.5,14.2-42.5,42.3-42.5c8.1,0,17.7,1.5,29.2,4.6V19.1c0-4,1.5-5,5-5h8.8c3.5,0,4.8,1.5,4.8,5
		v134.5c0,6.9-1.5,8.8-8.1,11.5c-11.3,4.4-23.8,6.5-37.3,6.5c-29.8,0-44.6-14-44.6-41.9V100.2z M427,79.4c-10-3.1-18.6-4.6-25.6-4.6
		c-18.1,0-27.1,8.8-27.1,26.1V129c0,16.9,9.2,25.4,27.5,25.4c8.5,0,15.8-1,22.3-3.3c1.9-0.6,2.9-2.1,2.9-4V79.4z"/>
	<path class="st1" d="M467.4,102.3c0-28.4,16.5-44.6,47.1-44.6c30.9,0,47.1,17.3,47.1,43.2v12.1c0,4.8-2.5,7.3-7.7,7.3h-68v10
		c0,16.1,9.8,25,27.9,25c13.6,0,23.4-4.8,29-14.4c2.5-3.5,4.6-4.2,8.1-1.9l5.6,2.9c3.5,1.9,4.2,4.6,1.9,8.1
		c-8.1,14.4-23.1,21.5-44.8,21.5c-31.1,0-46.3-16.7-46.3-43.4V102.3z M543.1,99.8c0-16.7-10-26.3-28.6-26.3
		c-18.6,0-28.6,9.8-28.6,26.3v6h57.1V99.8z"/>
	<path class="st1" d="M590.4,14.1c1.5,0,2.3,0.8,2.3,2.5v49.8c13.8-5.2,26.1-7.9,36.9-7.9c26.9,0,40.2,13.3,40.2,40.2v30.4
		c0,28.1-14.6,42.1-44,42.1c-12.9,0-24.2-2.1-34-6c-6.7-2.7-8.1-4.6-8.1-11.5V16.6c0-1.7,0.8-2.5,2.5-2.5H590.4z M660.9,99
		c0-21.5-10.6-32.1-32.1-32.1c-12.3,0-24.2,2.7-36.1,8.1v76.3c0,4.2,0.6,5,5,6.9c8.1,3.3,17.3,5,27.7,5c23.6,0,35.4-11.3,35.4-34V99
		z"/>
	<path class="st1" d="M691.5,102.1c0-27.3,15.8-43.6,45-43.6c29.4,0,45,16.7,45,43.2v10.6c0,3.1-1.7,4.6-4.8,4.6h-76.3v14.2
		c0,20.2,12.1,32.5,34.8,32.5c17.1,0,29.4-6.9,36.9-20.4c1-1.5,2.3-1.9,3.8-1l2.9,1.7c1.7,0.8,1.9,2.1,0.8,3.8
		c-8.5,15.8-23.4,23.8-44.4,23.8c-29,0-43.8-15.4-43.8-41.1V102.1z M772.6,101.3c0-21.7-12.5-34.8-36.1-34.8
		c-23.6,0-36.1,13.1-36.1,34.8v8.3h72.1V101.3z"/>
	<path class="st1" d="M821.8,36.6c1.7,0,2.5,0.8,2.5,2.3v22.7h33.2c1.7,0,2.5,0.8,2.5,2.3v3.5c0,1.5-0.8,2.3-2.5,2.3h-33.2v60.5
		c0,13.1,2.3,21.9,6.9,26.1c4.4,4.4,13.1,6.5,25.9,6.5c1.7,0,2.5,0.8,2.5,2.5v3.5c0,1.7-0.8,2.5-2.5,2.5
		c-15.6,0.2-26.5-2.7-32.5-8.5c-6-5.6-9.2-16.5-9.2-32.3V69.8h-22.5c-1.5,0-2.3-0.8-2.3-2.3v-3.5c0-1.5,0.8-2.3,2.3-2.3h22.5V38.9
		c0-1.5,0.8-2.3,2.5-2.3H821.8z"/>
</g>
</svg>
