<svg width="49" height="49" viewBox="0 0 49 49" version="1.1" xmlns="http://www.w3.org/2000/svg" xmlns:xlink="http://www.w3.org/1999/xlink">
<title>logo_laravel</title>
<desc>Created using Figma</desc>
<g id="Canvas" transform="translate(178 -1080)">
<g id="logo_laravel">
<g id="Group">
<g id="Vector">
<use xlink:href="#path0_fill" transform="translate(-152.655 1095.94)" fill="#C9C9C9"/>
</g>
<g id="Vector">
<use xlink:href="#path1_fill" transform="translate(-177.508 1080)" fill="#C9C9C9"/>
</g>
<g id="Vector">
<use xlink:href="#path2_fill" transform="translate(-178 1094.1)" fill="#C9C9C9"/>
</g>
<g id="Vector">
<use xlink:href="#path3_fill" transform="translate(-177.992 1087.02)" fill="#C9C9C9"/>
</g>
</g>
</g>
</g>
<defs>
<path id="path0_fill" d="M 5.36474 23.8684C 5.74755 24.4214 5.98145 24.3789 6.27908 24.2512C 6.57672 24.1236 21.8894 18.9556 22.3572 18.7856C 22.825 18.6155 22.6763 18.4665 22.5276 18.2325C 22.3786 17.9986 17.2744 11.0654 17.0191 10.6614C 16.7639 10.2573 16.6363 10.3423 16.2322 10.47L 1.42527e-06 14.6937C 1.42527e-06 14.6937 4.98192 23.3153 5.36474 23.8684ZM 23.6546 16.8084L 23.6546 8.69315C 21.8284 9.17971 19.5185 9.79489 18.6066 10.0374C 19.9822 11.878 22.1329 14.7584 23.6546 16.8084ZM 18.5909 0.0423586C 18.3407 0.0992063 12.8014 1.10026 12.4602 1.14562C 12.1191 1.19118 12.2328 1.3845 12.3692 1.57782L 17.2438 8.26613C 17.2438 8.26613 23.204 6.78751 23.568 6.70789C 23.5975 6.70138 23.6264 6.69449 23.6546 6.68741L 23.6546 5.80177C 22.5712 4.42805 19.6197 0.68778 19.3646 0.338272C 19.0576 -0.0826301 18.8413 -0.0142976 18.5909 0.0423586Z"/>
<path id="path1_fill" d="M 8.59146 5.48073C 9.79101 5.42618 9.90049 5.69912 10.4274 6.48063L 23.667 28.6152L 40.3144 24.6273C 39.392 23.3198 35.2048 17.3833 34.8 16.8168C 34.3452 16.1798 34.8114 15.884 35.5508 15.7591C 36.2901 15.6339 42.6597 14.5647 43.2056 14.4851C 43.7516 14.4054 44.184 14.2121 45.071 15.2813C 45.525 15.8283 47.0639 17.7447 48.5081 19.541L 48.5081 9.1875C 48.5081 6.65673 47.6094 4.49269 45.8125 2.69557C 44.0154 0.898652 41.8514 0 39.3206 0L 8.69559 0C 6.16481 0 4.00077 0.898652 2.20366 2.69557C 1.17294 3.72668 0.439277 4.87837 -1.27777e-08 6.15065C 3.00087 5.90412 7.75215 5.51901 8.59165 5.48073L 8.59146 5.48073Z"/>
<path id="path2_fill" d="M 32.2116 28.6945C 30.8078 29.1198 30.1783 29.3309 29.2639 28.0548C 28.5791 27.0991 24.8755 20.4286 23.0597 17.1402C 19.623 18.0402 13.3336 19.6817 11.5198 20.1176C 9.74966 20.5429 8.99361 19.4815 8.70286 18.8275C 8.49901 18.3685 3.30922 7.17927 0 2.92063e-07L 0 25.7154C 0 28.2464 0.898652 30.4101 2.69557 32.2074C 4.49269 34.0043 6.65673 34.9029 9.1875 34.9029L 39.8125 34.9029C 42.3433 34.9029 44.5073 34.0043 46.3044 32.2074C 48.1013 30.4101 49 28.2464 49 25.7154L 49 22.6948C 45.2408 24.0699 33.1573 28.4079 32.2116 28.6945Z"/>
<path id="path3_fill" d="M 11.5548 24.6128C 12.0525 24.4989 21.3764 22.2675 21.5755 22.2248C 21.7746 22.1821 21.9024 22.0684 21.6892 21.699C 21.476 21.3296 9.26043 0.244297 9.26043 0.244297C 9.14769 0.0507854 9.17984 -0.0137185 8.8734 0.00235967C 8.60027 0.0169065 1.68839 0.633618 0.0882383 0.767219C 0.0410037 1.10557 0.0115505 1.44617 -4.56341e-11 1.78761C 1.62446 5.11329 10.9482 24.3423 11.0005 24.4989C 11.0573 24.6696 11.0573 24.7265 11.5548 24.6128Z"/>
</defs>
</svg>
