<svg width="50" height="49" viewBox="0 0 50 49" version="1.1" xmlns="http://www.w3.org/2000/svg" xmlns:xlink="http://www.w3.org/1999/xlink">
<title>logo_github</title>
<desc>Created using Figma</desc>
<g id="Canvas" transform="translate(-1563 -1635)">
<g id="logo_github">
<g id="Group">
<g id="Vector">
<use xlink:href="#path0_fill" transform="translate(1563 1635)" fill="#161614"/>
</g>
<g id="Vector">
<use xlink:href="#path1_fill" transform="translate(1571.69 1670.25)" fill="#161614"/>
</g>
</g>
</g>
</g>
<defs>
<path id="path0_fill" d="M 25.0001 0C 11.1947 0 0 11.2132 0 25.0458C 0 36.1119 7.16328 45.5001 17.0967 48.8119C 18.346 49.0437 18.8048 48.2686 18.8048 47.607C 18.8048 47.0099 18.7815 45.0367 18.7709 42.944C 11.8157 44.459 10.3481 39.9889 10.3481 39.9889C 9.21085 37.0939 7.57228 36.3243 7.57228 36.3243C 5.30413 34.7697 7.74326 34.8016 7.74326 34.8016C 10.2538 34.9783 11.5757 37.3826 11.5757 37.3826C 13.8054 41.2117 17.4241 40.1046 18.8507 39.4648C 19.075 37.8458 19.723 36.7411 20.4379 36.1157C 14.8852 35.4822 9.04772 33.3346 9.04772 23.7378C 9.04772 21.0035 10.0244 18.7691 11.6237 17.0152C 11.3641 16.3843 10.5085 13.8369 11.8659 10.387C 11.8659 10.387 13.9652 9.71387 18.7427 12.9544C 20.7367 12.3993 22.8755 12.1211 25.0001 12.1117C 27.1247 12.1211 29.265 12.3993 31.263 12.9544C 36.0348 9.71387 38.1312 10.387 38.1312 10.387C 39.4919 13.8369 38.6359 16.3843 38.3763 17.0152C 39.9792 18.7691 40.9491 21.0033 40.9491 23.7378C 40.9491 33.3574 35.1007 35.4757 29.5339 36.0956C 30.4305 36.8729 31.2295 38.3972 31.2295 40.7337C 31.2295 44.0848 31.2005 46.782 31.2005 47.607C 31.2005 48.2735 31.6504 49.0545 32.9179 48.8086C 42.8457 45.4931 50 36.1082 50 25.0458C 50 11.2132 38.8069 0 25.0001 0Z"/>
<path id="path1_fill" d="M 0.669595 0.424711C 0.614695 0.549051 0.419015 0.586372 0.241178 0.501121C 0.059812 0.419406 -0.0421453 0.24969 0.0166761 0.12476C 0.0705958 -0.00331207 0.266275 -0.0390616 0.447249 0.0469748C 0.629007 0.128493 0.732534 0.299781 0.669595 0.424711ZM 1.89936 1.52393C 1.78014 1.63472 1.54701 1.58326 1.38878 1.40824C 1.22526 1.23361 1.19467 1.00025 1.31565 0.887696C 1.43859 0.777106 1.66466 0.828766 1.82857 1.00359C 1.9921 1.18018 2.02386 1.41217 1.89916 1.52413L 1.89936 1.52393ZM 2.74305 2.93038C 2.58972 3.03704 2.33914 2.93705 2.18444 2.7143C 2.03131 2.49174 2.03131 2.2246 2.18778 2.11755C 2.34307 2.01049 2.58972 2.10674 2.74658 2.32773C 2.89952 2.55421 2.89952 2.82136 2.74285 2.93057L 2.74305 2.93038ZM 4.16967 4.55937C 4.03261 4.71062 3.74086 4.67016 3.52714 4.46352C 3.30872 4.26158 3.24774 3.97499 3.38518 3.82354C 3.52381 3.6719 3.81733 3.71453 4.03261 3.9194C 4.24966 4.12094 4.31594 4.40969 4.16986 4.55937L 4.16967 4.55937ZM 6.01352 5.10938C 5.95333 5.30541 5.67216 5.39459 5.38903 5.31131C 5.1063 5.22547 4.92121 4.99564 4.97827 4.79745C 5.03709 4.60003 5.31943 4.50712 5.60471 4.5963C 5.88706 4.68175 6.07254 4.9098 6.01372 5.10938L 6.01352 5.10938ZM 8.11227 5.34254C 8.11933 5.54918 7.87914 5.72047 7.5819 5.7242C 7.28289 5.73069 7.04113 5.56352 7.038 5.36041C 7.038 5.15181 7.2727 4.98209 7.57151 4.97718C 7.86875 4.97129 8.11227 5.13727 8.11227 5.34254ZM 10.1738 5.26338C 10.2095 5.46491 10.0028 5.67195 9.70771 5.72695C 9.41752 5.77999 9.1489 5.65565 9.11185 5.45588C 9.07577 5.24923 9.28635 5.04239 9.57595 4.98877C 9.87162 4.9373 10.1361 5.0585 10.1738 5.26338Z"/>
</defs>
</svg>
