<svg width="51" height="51" viewBox="0 0 51 51" version="1.1" xmlns="http://www.w3.org/2000/svg" xmlns:xlink="http://www.w3.org/1999/xlink">
<title>logo_laravel</title>
<desc>Created using Figma</desc>
<g id="Canvas" transform="translate(-1242 -1634)">
<g id="logo_laravel">
<g id="Group">
<g id="Vector">
<use xlink:href="#path0_fill" transform="translate(1268.83 1650.28)" fill="#F35045"/>
</g>
<g id="Vector">
<use xlink:href="#path1_fill" transform="translate(1243.46 1634)" fill="#F35045"/>
</g>
<g id="Vector">
<use xlink:href="#path2_fill" transform="translate(1242.96 1648.39)" fill="#F35045"/>
</g>
<g id="Vector">
<use xlink:href="#path3_fill" transform="translate(1242.97 1641.17)" fill="#F35045"/>
</g>
</g>
</g>
</g>
<defs>
<path id="path0_fill" d="M 5.47422 24.3638C 5.86485 24.9283 6.10352 24.8849 6.40723 24.7546C 6.71094 24.6243 22.3361 19.349 22.8135 19.1755C 23.2908 19.0018 23.1391 18.8498 22.9873 18.6109C 22.8354 18.3721 17.627 11.2951 17.3664 10.8827C 17.1061 10.4702 16.9758 10.557 16.5635 10.6873L 1.45435e-06 14.9987C 1.45435e-06 14.9987 5.0836 23.7992 5.47422 24.3638ZM 24.1373 17.1573L 24.1373 8.87358C 22.2738 9.37024 19.9168 9.99819 18.9863 10.2457C 20.39 12.1245 22.5846 15.0648 24.1373 17.1573ZM 18.9703 0.0432378C 18.715 0.101265 13.0627 1.1231 12.7145 1.1694C 12.3664 1.2159 12.4824 1.41323 12.6217 1.61057L 17.5957 8.43769C 17.5957 8.43769 23.6775 6.92839 24.049 6.84711C 24.0791 6.84047 24.1086 6.83344 24.1373 6.82621L 24.1373 5.92219C 23.0318 4.51995 20.0201 0.702055 19.7598 0.345293C 19.4465 -0.0843451 19.2258 -0.0145944 18.9703 0.0432378Z"/>
<path id="path1_fill" d="M 8.7668 5.59448C 9.99082 5.5388 10.1025 5.81741 10.6402 6.61514L 24.15 29.2092L 41.1371 25.1384C 40.1959 23.8038 35.9232 17.7441 35.5102 17.1658C 35.0461 16.5156 35.5219 16.2137 36.2764 16.0861C 37.0307 15.9584 43.5303 14.867 44.0873 14.7857C 44.6445 14.7044 45.0857 14.5071 45.9908 15.5985C 46.4541 16.1569 48.0244 18.113 49.498 19.9466L 49.498 9.37819C 49.498 6.79489 48.5811 4.58593 46.7475 2.75152C 44.9137 0.917304 42.7055 0 40.123 0L 8.87305 0C 6.29062 0 4.08242 0.917304 2.24863 2.75152C 1.19687 3.80403 0.448242 4.97962 -1.30385e-08 6.27831C 3.06211 6.02666 7.91035 5.63356 8.76699 5.59448L 8.7668 5.59448Z"/>
<path id="path2_fill" d="M 32.8689 29.29C 31.4365 29.7242 30.7941 29.9397 29.8611 28.6371C 29.1623 27.6616 25.3832 20.8526 23.5303 17.496C 20.0234 18.4147 13.6057 20.0902 11.7549 20.5351C 9.94863 20.9692 9.17715 19.8859 8.88047 19.2183C 8.67246 18.7497 3.37676 7.32827 0 2.98125e-07L 0 26.2492C 0 28.8327 0.916992 31.0412 2.75059 32.8758C 4.58437 34.71 6.79258 35.6273 9.375 35.6273L 40.625 35.6273C 43.2074 35.6273 45.4156 34.71 47.2494 32.8758C 49.083 31.0412 50 28.8327 50 26.2492L 50 23.1659C 46.1641 24.5695 33.834 28.9976 32.8689 29.29Z"/>
<path id="path3_fill" d="M 11.7906 25.1236C 12.2984 25.0074 21.8127 22.7297 22.0158 22.6861C 22.2189 22.6425 22.3494 22.5265 22.1318 22.1494C 21.9143 21.7723 9.44941 0.249368 9.44941 0.249368C 9.33437 0.0518395 9.36719 -0.0140032 9.05449 0.00240864C 8.77578 0.0172574 1.72285 0.646769 0.0900391 0.783143C 0.0418405 1.12852 0.0117862 1.47618 -4.65655e-11 1.82471C 1.65762 5.21942 11.1717 24.8476 11.225 25.0074C 11.283 25.1817 11.283 25.2397 11.7906 25.1236Z"/>
</defs>
</svg>
