<svg width="62" height="56" viewBox="0 0 62 56" version="1.1" xmlns="http://www.w3.org/2000/svg" xmlns:xlink="http://www.w3.org/1999/xlink">
<title>logo_react</title>
<desc>Created using Figma</desc>
<g id="Canvas" transform="translate(-1152 -1631)">
<g id="logo_react">
<g id="Vector">
<use xlink:href="#path0_fill" transform="translate(1152 1631)" fill="#FFFFFF"/>
</g>
<g id="Vector">
<use xlink:href="#path1_fill" transform="translate(1155.53 1634.35)" fill="#53C1DE"/>
</g>
<g id="Vector">
<use xlink:href="#path2_fill" transform="translate(1157.88 1636.69)" fill="#FFFFFF"/>
</g>
<g id="Vector">
<use xlink:href="#path3_fill" transform="translate(1178.14 1653.88)" fill="#53C1DE"/>
</g>
</g>
</g>
<defs>
<path id="path0_fill" d="M 1.97534e-09 27.7808C 1.97534e-09 32.4647 4.5722 36.8371 11.7803 39.3018C 10.3409 46.5507 11.5225 52.3935 15.4687 54.67C 19.5248 57.0101 25.5676 55.3903 31.3031 50.3748C 36.8939 55.1877 42.5442 57.0818 46.487 54.7987C 50.5394 52.452 51.7717 46.2131 50.2925 38.7378C 57.8004 36.2548 62 32.5264 62 27.7808C 62 23.2055 57.4195 19.2475 50.3084 16.7987C 51.9008 9.01453 50.5516 3.3136 46.4419 0.942988C 42.4799 -1.34255 36.7638 0.649495 31.0909 5.58817C 25.1889 0.346252 19.5294 -1.25406 15.4241 1.12313C 11.4657 3.41525 10.3363 9.36433 11.7803 16.7472C 4.8154 19.1764 1.97534e-09 23.2241 1.97534e-09 27.7808Z"/>
<path id="path1_fill" d="M 45.2717 15.8836C 44.6857 15.6825 44.0946 15.4962 43.4992 15.3249C 43.5979 14.9235 43.6892 14.5203 43.7731 14.1156C 45.1148 7.60023 44.2375 2.35148 41.2417 0.623679C 38.3694 -1.03343 33.6717 0.69437 28.9272 4.82448C 28.4597 5.23238 28.0026 5.65203 27.5563 6.08304C 27.2574 5.79644 26.9532 5.51542 26.6439 5.2401C 21.6716 0.823566 16.6876 -1.03734 13.6949 0.695589C 10.8253 2.35733 9.97537 7.29187 11.1833 13.4664C 11.3035 14.0779 11.4392 14.6862 11.5902 15.2908C 10.885 15.4911 10.2039 15.7047 9.55233 15.9319C 3.72297 17.9649 7.43659e-09 21.1514 7.43659e-09 24.4563C 7.43659e-09 27.87 3.99638 31.2939 10.0685 33.3698C 10.5608 33.5374 11.0573 33.6926 11.5573 33.8354C 11.3949 34.4867 11.2507 35.1425 11.1248 35.8019C 9.97317 41.8692 10.8726 46.6867 13.7346 48.3382C 16.6908 50.0433 21.6521 48.2907 26.4834 44.0662C 26.8652 43.7323 27.2485 43.3781 27.6323 43.0068C 28.1157 43.4734 28.6121 43.9264 29.1207 44.3653C 33.8004 48.3935 38.4221 50.0202 41.2817 48.3643C 44.2351 46.654 45.1947 41.4787 43.9485 35.182C 43.8535 34.701 43.7426 34.2098 43.6183 33.7096C 43.9668 33.6068 44.3087 33.5005 44.6423 33.3898C 50.9546 31.2978 55.0614 27.9156 55.0614 24.4563C 55.0614 21.1394 51.2185 17.9315 45.2717 15.8836Z"/>
<path id="path2_fill" d="M 41.5504 28.809C 41.2495 28.9087 40.9405 29.0049 40.6257 29.0983C 39.9287 26.8915 38.9881 24.5448 37.8375 22.1205C 38.9357 19.7536 39.8398 17.4371 40.5172 15.2444C 41.0804 15.4077 41.6272 15.5796 42.154 15.7612C 47.2494 17.5156 50.3574 20.11 50.3574 22.1088C 50.3574 24.2381 47.0006 27.0024 41.5507 28.809L 41.5504 28.809ZM 39.2891 33.2916C 39.84 36.0758 39.9188 38.5932 39.5537 40.5611C 39.2257 42.3294 38.5663 43.5082 37.751 43.9804C 36.0157 44.9852 32.3047 43.6791 28.3029 40.2342C 27.8441 39.8393 27.3818 39.4176 26.9183 38.9715C 28.4698 37.2739 30.0204 35.3004 31.5337 33.109C 34.1956 32.8728 36.7104 32.4864 38.9911 31.9591C 39.1032 32.4125 39.2031 32.8569 39.2891 33.2916ZM 16.4195 43.8068C 14.7242 44.4058 13.374 44.4228 12.5579 43.9521C 10.8209 42.9503 10.0992 39.0817 11.0839 33.8932C 11.201 33.28 11.335 32.6702 11.4859 32.0644C 13.7412 32.5634 16.2377 32.9225 18.9061 33.139C 20.4293 35.2834 22.0247 37.2544 23.6325 38.9805C 23.2908 39.3112 22.941 39.6334 22.5835 39.9468C 20.4471 41.815 18.3064 43.1401 16.4198 43.8068L 16.4195 43.8068ZM 8.47721 28.7958C 5.79232 27.8778 3.57506 26.6848 2.05521 25.3831C 0.689619 24.213 1.11549e-07 23.0515 1.11549e-07 22.1088C 1.11549e-07 20.1034 2.98925 17.5451 7.97473 15.8063C 8.60048 15.589 9.23246 15.3901 9.86985 15.2098C 10.559 17.4517 11.4628 19.7958 12.5535 22.1661C 11.4487 24.5718 10.5319 26.9532 9.83646 29.2214C 9.37996 29.0907 8.92674 28.9488 8.47721 28.7958ZM 11.1397 10.667C 10.1048 5.37658 10.7919 1.3859 12.5214 0.384517C 14.3636 -0.682198 18.4367 0.838895 22.7299 4.65211C 23.0043 4.89587 23.2799 5.1511 23.556 5.41509C 21.9565 7.13339 20.3757 9.08961 18.8656 11.2216C 16.276 11.4617 13.797 11.8473 11.5181 12.3639C 11.3777 11.8014 11.2515 11.2356 11.1397 10.6668L 11.1397 10.667ZM 34.8906 16.5337C 34.3523 15.6036 33.7941 14.6852 33.2163 13.7792C 34.9732 14.001 36.6563 14.2959 38.2369 14.657C 37.7624 16.1783 37.171 17.7691 36.4746 19.3999C 35.9657 18.434 35.4376 17.4784 34.8906 16.5337ZM 25.205 7.09658C 26.2899 8.27226 27.3764 9.58518 28.4452 11.0095C 26.2772 10.907 24.1055 10.9065 21.9375 11.008C 23.0072 9.59688 24.1031 8.28591 25.205 7.09658ZM 15.4572 16.5498C 14.9171 17.487 14.3989 18.4367 13.903 19.3982C 13.218 17.773 12.632 16.1751 12.1534 14.6321C 13.7244 14.2803 15.3997 13.9929 17.1452 13.7748C 16.5609 14.6864 15.9981 15.6117 15.4572 16.5498ZM 17.1954 30.6109C 15.3922 30.4095 13.6915 30.1367 12.121 29.7947C 12.6071 28.2244 13.2061 26.5922 13.9057 24.9321C 14.4036 25.8943 14.9241 26.8446 15.4667 27.7822C 16.0204 28.7387 16.5968 29.6819 17.1954 30.6109ZM 25.2701 37.2873C 24.1552 36.0839 23.0433 34.7529 21.9572 33.3213C 23.0114 33.3627 24.0863 33.3837 25.1787 33.3837C 26.3011 33.3837 27.4106 33.3586 28.5025 33.3098C 27.4303 34.7676 26.3476 36.1005 25.2701 37.2873ZM 36.497 24.8475C 37.2329 26.5256 37.8533 28.1491 38.346 29.6929C 36.7494 30.0573 35.0259 30.3508 33.2097 30.5687C 33.7917 29.6457 34.3553 28.7113 34.9001 27.7659C 35.454 26.8051 35.9864 25.8321 36.497 24.8475ZM 32.8625 26.5905C 32.0284 28.0399 31.1474 29.4618 30.2209 30.8539C 28.5873 30.9707 26.8991 31.0309 25.1787 31.0309C 23.4654 31.0309 21.7986 30.9775 20.1934 30.8734C 19.2429 29.4845 18.3453 28.0602 17.5025 26.6034C 16.6635 25.1543 15.88 23.6739 15.1534 22.1654C 15.8781 20.6564 16.6593 19.1752 17.4954 17.725L 17.4954 17.7255C 18.3312 16.2749 19.2218 14.8566 20.1652 13.4737C 21.8027 13.3499 23.4817 13.285 25.1789 13.285C 26.8837 13.285 28.5649 13.3504 30.2019 13.4752C 31.1358 14.856 32.0207 16.2693 32.8549 17.7125C 33.6938 19.1596 34.4855 20.6335 35.2286 22.132C 34.4931 23.6458 33.704 25.1329 32.8627 26.5905L 32.8625 26.5905ZM 37.7149 0.314556C 39.5586 1.37835 40.2757 5.66788 39.1173 11.2932C 39.0414 11.6597 38.9588 12.0248 38.8697 12.3882C 36.5854 11.861 34.1047 11.4685 31.5076 11.2247C 29.9946 9.06962 28.427 7.10999 26.8533 5.41387C 27.2656 5.01618 27.6878 4.6288 28.1194 4.25209C 32.1845 0.713112 35.9838 -0.684148 37.7149 0.314556Z"/>
<path id="path3_fill" d="M 4.91677 2.23173e-07C 7.63236 2.23173e-07 9.83354 2.20217 9.83354 4.91844C 9.83354 7.63496 7.63236 9.83713 4.91677 9.83713C 2.20142 9.83713 -3.12336e-07 7.63496 -3.12336e-07 4.91844C -3.12336e-07 2.20217 2.20142 2.23173e-07 4.91677 2.23173e-07Z"/>
</defs>
</svg>
