<svg width="49" height="48" viewBox="0 0 49 48" version="1.1" xmlns="http://www.w3.org/2000/svg" xmlns:xlink="http://www.w3.org/1999/xlink">
<title>logo_github</title>
<desc>Created using Figma</desc>
<g id="Canvas" transform="translate(-160 -1081)">
<g id="logo_github">
<g id="Group">
<g id="Vector">
<use xlink:href="#path0_fill" transform="translate(160 1081)" fill="#C9C9C9"/>
</g>
<g id="Vector">
<use xlink:href="#path1_fill" transform="translate(168.52 1115.64)" fill="#C9C9C9"/>
</g>
</g>
</g>
</g>
<defs>
<path id="path0_fill" d="M 24.5001 0C 10.9708 0 0 11.017 0 24.6075C 0 35.48 7.02001 44.7039 16.7547 47.9577C 17.9791 48.1855 18.4287 47.4239 18.4287 46.7739C 18.4287 46.1872 18.4059 44.2486 18.3955 42.1925C 11.5793 43.681 10.1411 39.2891 10.1411 39.2891C 9.02663 36.4448 7.42084 35.6886 7.42084 35.6886C 5.19804 34.1613 7.58839 34.1925 7.58839 34.1925C 10.0487 34.3662 11.3442 36.7285 11.3442 36.7285C 13.5293 40.4905 17.0756 39.4028 18.4737 38.7742C 18.6935 37.1835 19.3286 36.0981 20.0291 35.4836C 14.5875 34.8612 8.86677 32.7513 8.86677 23.3224C 8.86677 20.6359 9.82386 18.4407 11.3912 16.7174C 11.1368 16.0975 10.2983 13.5948 11.6285 10.2053C 11.6285 10.2053 13.6859 9.54388 18.3678 12.7277C 20.322 12.1823 22.418 11.909 24.5001 11.8997C 26.5822 11.909 28.6797 12.1823 30.6378 12.7277C 35.3141 9.54388 37.3686 10.2053 37.3686 10.2053C 38.7021 13.5948 37.8632 16.0975 37.6088 16.7174C 39.1796 18.4407 40.1302 20.6357 40.1302 23.3224C 40.1302 32.7736 34.3987 34.8549 28.9432 35.464C 29.8219 36.2276 30.6049 37.7253 30.6049 40.0209C 30.6049 43.3134 30.5765 45.9633 30.5765 46.7739C 30.5765 47.4287 31.0174 48.1961 32.2595 47.9545C 41.9888 44.6969 49 35.4763 49 24.6075C 49 11.017 38.0307 0 24.5001 0Z"/>
<path id="path1_fill" d="M 0.656203 0.417279C 0.602401 0.539443 0.410635 0.57611 0.236355 0.492351C 0.0586157 0.412066 -0.0413024 0.245321 0.0163426 0.122577C 0.0691839 -0.00325411 0.26095 -0.038378 0.438304 0.0461528C 0.616427 0.126245 0.717883 0.294535 0.656203 0.417279ZM 1.86137 1.49726C 1.74454 1.60611 1.51607 1.55555 1.36101 1.38359C 1.20076 1.21202 1.17078 0.982746 1.28934 0.872161C 1.40981 0.763507 1.63136 0.814263 1.792 0.986026C 1.95226 1.15953 1.98338 1.38745 1.86118 1.49746L 1.86137 1.49726ZM 2.68819 2.87909C 2.53793 2.98389 2.29236 2.88565 2.14075 2.6668C 1.99068 2.44814 1.99069 2.18567 2.14402 2.08049C 2.2962 1.97531 2.53793 2.06988 2.69165 2.28699C 2.84153 2.50951 2.84153 2.77198 2.688 2.87929L 2.68819 2.87909ZM 4.08627 4.47958C 3.95196 4.62819 3.66604 4.58843 3.4566 4.3854C 3.24254 4.18701 3.18278 3.90543 3.31748 3.75663C 3.45333 3.60764 3.74098 3.64952 3.95196 3.85081C 4.16467 4.04882 4.22962 4.33252 4.08647 4.47958L 4.08627 4.47958ZM 5.89325 5.01996C 5.83426 5.21257 5.55872 5.30019 5.28125 5.21836C 5.00417 5.13402 4.82279 4.90822 4.8787 4.71349C 4.93635 4.51953 5.21304 4.42825 5.49262 4.51587C 5.76932 4.59982 5.95109 4.82388 5.89345 5.01996L 5.89325 5.01996ZM 7.95003 5.24904C 7.95694 5.45207 7.72156 5.62036 7.43026 5.62403C 7.13723 5.6304 6.90031 5.46616 6.89724 5.26661C 6.89724 5.06165 7.12724 4.8949 7.42008 4.89008C 7.71138 4.88429 7.95003 5.04737 7.95003 5.24904ZM 9.97029 5.17127C 10.0053 5.36928 9.80274 5.57269 9.51355 5.62673C 9.22917 5.67884 8.96592 5.55667 8.92961 5.3604C 8.89425 5.15737 9.10062 4.95415 9.38443 4.90147C 9.67419 4.8509 9.9334 4.96998 9.97029 5.17127Z"/>
</defs>
</svg>
