<svg width="39" height="48" viewBox="0 0 39 48" version="1.1" xmlns="http://www.w3.org/2000/svg" xmlns:xlink="http://www.w3.org/1999/xlink">
<title>logo_apple</title>
<desc>Created using Figma</desc>
<g id="Canvas" transform="translate(-244 -1081)">
<g id="logo_apple">
<g id="Vector">
<use xlink:href="#path0_fill" transform="translate(244 1081)" fill="#C9C9C9"/>
</g>
</g>
</g>
<defs>
<path id="path0_fill" d="M 32.5716 25.5009C 32.6389 32.7649 38.9303 35.1821 39 35.2129C 38.9468 35.3833 37.9947 38.6576 35.6854 42.0398C 33.689 44.9639 31.6171 47.8772 28.3533 47.9375C 25.1462 47.9967 24.1149 46.0317 20.4483 46.0317C 16.7828 46.0317 15.637 47.8773 12.6011 47.9968C 9.45065 48.1164 7.05151 44.8349 5.03868 41.9215C 0.925533 35.9622 -2.21776 25.0819 2.00289 17.7375C 4.09962 14.0902 7.84663 11.7806 11.9137 11.7214C 15.0074 11.6622 17.9274 13.8072 19.8187 13.8072C 21.7088 13.8072 25.2572 11.2277 28.9876 11.6065C 30.5493 11.6717 34.933 12.2387 37.7478 16.3678C 37.521 16.5087 32.5172 19.428 32.5716 25.5009ZM 26.5442 7.66392C 28.2169 5.63493 29.3426 2.8104 29.0355 0C 26.6245 0.0971082 23.7092 1.61004 21.9799 3.63792C 20.4301 5.43369 19.0728 8.30794 19.439 11.0627C 22.1263 11.2711 24.8715 9.69419 26.5442 7.66392Z"/>
</defs>
</svg>
