<svg width="50" height="51" viewBox="0 0 50 51" version="1.1" xmlns="http://www.w3.org/2000/svg" xmlns:xlink="http://www.w3.org/1999/xlink">
<title>logo_slack</title>
<desc>Created using Figma</desc>
<g id="Canvas" transform="translate(-1323 -1634)">
<g id="logo_slack">
<g id="Vector">
<use xlink:href="#path0_fill" transform="translate(1346.73 1634)" fill="#DFA22F"/>
</g>
<g id="Vector">
<use xlink:href="#path1_fill" transform="translate(1328.89 1639.8)" fill="#3CB187"/>
</g>
<g id="Vector">
<use xlink:href="#path2_fill" transform="translate(1328.8 1657.74)" fill="#CE1E5B"/>
</g>
<g id="Vector">
<use xlink:href="#path3_fill" transform="translate(1336.37 1665.22)" fill="#392538"/>
</g>
<g id="Vector">
<use xlink:href="#path4_fill" transform="translate(1354.21 1659.42)" fill="#BB242A"/>
</g>
<g id="Vector">
<use xlink:href="#path5_fill" transform="translate(1323 1639.89)" fill="#72C5CD"/>
</g>
<g id="Vector">
<use xlink:href="#path6_fill" transform="translate(1330.57 1647.37)" fill="#248C73"/>
</g>
<g id="Vector">
<use xlink:href="#path7_fill" transform="translate(1348.41 1641.57)" fill="#62803A"/>
</g>
</g>
</g>
<defs>
<path id="path0_fill" d="M 8.69092 3.07986C 7.93092 0.73946 5.41802 -0.54126 3.07881 0.219393C 0.739208 0.979656 -0.541077 3.49341 0.219318 5.83341L 11.736 41.2794C 12.5269 43.4658 14.8878 44.6944 17.1541 44.042C 19.5181 43.3613 20.959 40.8497 20.2047 38.5272L 8.69092 3.07986Z"/>
<path id="path1_fill" d="M 8.69138 3.07987C 7.93099 0.739664 5.41829 -0.541055 3.07908 0.219207C 0.739281 0.979665 -0.541199 3.49322 0.219391 5.83362L 11.7363 41.2798C 12.527 43.466 14.8881 44.6948 17.1544 44.0418C 19.5182 43.3615 20.9591 40.8499 20.2048 38.5271L 8.69138 3.07987Z"/>
<path id="path2_fill" d="M 41.123 8.69396C 43.4626 7.9337 44.7425 5.42034 43.9825 3.07975C 43.2225 0.73974 40.7096 -0.541175 38.3704 0.219283L 2.9364 11.7403C 0.750757 12.531 -0.477362 14.8927 0.174795 17.1598C 0.855282 19.5245 3.36603 20.966 5.68766 20.2115L 41.123 8.69416"/>
<path id="path3_fill" d="M 2.75262 11.2253L 11.2215 8.47273L 8.46945 -7.15723e-08L -2.50418e-07 2.75375L 2.75262 11.2255"/>
<path id="path4_fill" d="M 2.75282 11.2269C 5.9546 10.1865 8.93054 9.21911 11.2219 8.47429L 8.46945 6.20294e-07L 7.39329e-07 2.75375L 2.75282 11.2269Z"/>
<path id="path5_fill" d="M 41.123 8.69408C 43.4624 7.93382 44.7427 5.42026 43.9827 3.07967C 43.2227 0.739666 40.7098 -0.541054 38.3702 0.219209L 2.93607 11.7404C 0.750615 12.5308 -0.477699 14.8927 0.175044 17.1598C 0.85514 19.5242 3.36589 20.9658 5.68791 20.2112L 41.123 8.69389"/>
<path id="path6_fill" d="M 2.75282 11.2257C 5.0592 10.476 8.03279 9.50934 11.2231 8.47272C 10.1831 5.26946 9.21598 2.29251 8.47141 5.36793e-07L -3.04079e-07 2.75414L 2.75282 11.2257Z"/>
<path id="path7_fill" d="M 2.75282 11.2276L 11.2234 8.47429C 10.306 5.64949 9.38848 2.82472 8.47082 -2.62422e-07L 1.43096e-06 2.75414L 2.75282 11.2276Z"/>
</defs>
</svg>
