<svg width="44" height="48" viewBox="0 0 44 48" version="1.1" xmlns="http://www.w3.org/2000/svg" xmlns:xlink="http://www.w3.org/1999/xlink">
<title>logo_nodejs</title>
<desc>Created using Figma</desc>
<g id="Canvas" transform="translate(11 -1081)">
<g id="logo_nodejs">
<g id="Group">
<g id="Vector">
<use xlink:href="#path0_fill" transform="translate(-11 1081)" fill="#C9C9C9"/>
</g>
<g id="Vector">
<use xlink:href="#path1_fill" transform="translate(6.98998 1095.53)" fill="#C9C9C9"/>
</g>
</g>
</g>
</g>
<defs>
<path id="path0_fill" d="M 20.0148 0.512092C 21.217 -0.169158 22.783 -0.172235 23.9842 0.512092C 30.0275 3.89253 36.0726 7.26767 42.1148 10.6502C 43.2513 11.2839 44.0114 12.5359 43.9999 13.8323L 43.9999 34.1703C 44.0083 35.5203 43.173 36.8023 41.9741 37.4217C 35.9507 40.7835 29.9304 44.1494 23.908 47.5112C 22.6809 48.2058 21.0835 48.1523 19.8948 47.4008C 18.089 46.3644 16.28 45.3332 14.4741 44.2979C 14.105 44.0802 13.689 43.9068 13.4284 43.5526C 13.6588 43.2452 14.0707 43.2069 14.4053 43.0727C 15.1591 42.8354 15.8514 42.4546 16.5439 42.0849C 16.719 41.9663 16.9328 42.0118 17.1007 42.1179C 18.6448 42.9944 20.1754 43.8964 21.7247 44.7645C 22.0553 44.9534 22.3899 44.7026 22.6725 44.5467C 28.5833 41.2396 34.5013 37.945 40.4111 34.6368C 40.63 34.5326 40.7511 34.3025 40.7333 34.065C 40.7374 27.3559 40.7343 20.6457 40.7354 13.9366C 40.7604 13.6671 40.6029 13.4194 40.3568 13.3092C 34.3543 9.96275 28.355 6.61121 22.3535 3.26393C 22.2495 3.19317 22.1264 3.1552 22.0002 3.15502C 21.874 3.15483 21.7507 3.19244 21.6465 3.26291C 15.6451 6.61121 9.64672 9.96583 3.64526 13.3121C 3.40005 13.4225 3.23547 13.6661 3.26466 13.9366C 3.26569 20.6457 3.26466 27.3559 3.26466 34.066C 3.25425 34.1819 3.27996 34.2981 3.33831 34.3991C 3.39666 34.5 3.48487 34.5809 3.59104 34.6307C 5.19256 35.5297 6.79614 36.4225 8.39869 37.3184C 9.30151 37.7995 10.41 38.0853 11.4047 37.7167C 12.2825 37.4051 12.8978 36.5184 12.881 35.5957C 12.8893 28.9258 12.8769 22.2548 12.8872 15.5859C 12.8653 15.2898 13.149 15.0452 13.4398 15.0731C 14.2093 15.0679 14.9799 15.0628 15.7494 15.0751C 16.0706 15.0679 16.2916 15.3868 16.2519 15.6851C 16.2488 22.3972 16.2602 29.1096 16.2467 35.8217C 16.2488 37.6106 15.5064 39.5571 13.8349 40.4323C 11.7758 41.4883 9.23071 41.2644 7.19644 40.2518C 5.43536 39.3817 3.75475 38.3547 2.02492 37.4225C 0.822838 36.8066 -0.00831312 35.5195 0.000148629 34.1705L 0.000148629 13.8323C -0.0124577 12.5091 0.777939 11.2343 1.94981 10.6098C 7.97215 7.24527 13.9935 3.87817 20.0148 0.512092Z"/>
<path id="path1_fill" d="M 7.27868 0.0662922C 9.90528 -0.101071 12.7172 -0.0328606 15.0808 1.2481C 16.9107 2.22971 17.9253 4.28988 17.9576 6.30251C 17.9065 6.57399 17.6198 6.72374 17.358 6.70511C 16.5959 6.70408 15.8337 6.71537 15.0716 6.69998C 14.7483 6.71229 14.5604 6.41722 14.5199 6.13429C 14.3009 5.17131 13.7704 4.21756 12.8548 3.75308C 11.4493 3.05644 9.81962 3.09149 8.28701 3.10602C 7.16816 3.16483 5.96504 3.26073 5.01715 3.91207C 4.28944 4.40544 4.0684 5.40142 4.32812 6.20353C 4.57299 6.77947 5.24458 6.9653 5.79408 7.1366C 8.95946 7.95615 12.3138 7.8746 15.4187 8.95315C 16.7042 9.39284 17.9617 10.2476 18.4017 11.58C 18.9773 13.3658 18.725 15.5003 17.4416 16.934C 16.4008 18.1137 14.8849 18.7558 13.373 19.1045C 11.3617 19.5485 9.27445 19.5598 7.23188 19.3627C 5.31124 19.1459 3.31254 18.6464 1.82983 17.3509C 0.561952 16.2611 -0.05731 14.563 0.00416719 12.9241C 0.0188457 12.6473 0.29722 12.4543 0.565061 12.477C 1.33249 12.4709 2.09992 12.4688 2.86735 12.478C 3.17387 12.4563 3.40113 12.7186 3.41684 13.0046C 3.55845 13.9221 3.90676 14.8851 4.71494 15.429C 6.27467 16.4252 8.23175 16.357 10.0177 16.3848C 11.4973 16.3199 13.1582 16.3002 14.3657 15.3321C 15.0027 14.7799 15.1915 13.8561 15.0193 13.0613C 14.8328 12.3903 14.1237 12.0777 13.5148 11.8732C 10.39 10.8947 6.99824 11.2497 3.90365 10.1432C 2.64734 9.70364 1.43248 8.87263 0.949811 7.59492C 0.276324 5.78658 0.584919 3.54982 2.00287 2.16458C 3.38541 0.786691 5.38118 0.256051 7.27868 0.0661213L 7.27868 0.0662922Z"/>
</defs>
</svg>
