<svg width="45" height="56" viewBox="0 0 45 56" version="1.1" xmlns="http://www.w3.org/2000/svg" xmlns:xlink="http://www.w3.org/1999/xlink">
<title>logo_apple</title>
<desc>Created using Figma</desc>
<g id="Canvas" transform="translate(-1643 -1628)">
<g id="logo_apple">
<g id="Vector">
<use xlink:href="#path0_fill" transform="translate(1643 1628)"/>
</g>
</g>
</g>
<defs>
<path id="path0_fill" d="M 37.5826 29.3609C 37.6603 37.7244 44.9196 40.5076 45 40.543C 44.9386 40.7392 43.8401 44.5092 41.1755 48.4033C 38.8719 51.77 36.4813 55.1243 32.7153 55.1937C 29.0148 55.2619 27.8249 52.9994 23.5942 52.9994C 19.3647 52.9994 18.0427 55.1243 14.5398 55.262C 10.9046 55.3997 8.13635 51.6215 5.81386 48.2671C 1.06792 41.4057 -2.55896 28.8785 2.31103 20.4223C 4.73033 16.223 9.05381 13.5638 13.7466 13.4956C 17.3162 13.4275 20.6854 15.8972 22.8677 15.8972C 25.0486 15.8972 29.1429 12.9272 33.4472 13.3634C 35.2492 13.4384 40.3073 14.0913 43.5552 18.8454C 43.2935 19.0076 37.5199 22.3688 37.5826 29.3609ZM 30.628 8.82399C 32.5579 6.48788 33.8569 3.2358 33.5025 0C 30.7206 0.111807 27.3567 1.85375 25.3614 4.18858C 23.5732 6.25618 22.0071 9.56549 22.4296 12.7372C 25.5303 12.9771 28.6979 11.1616 30.628 8.82399Z"/>
</defs>
</svg>
