<svg width="50" height="56" viewBox="0 0 50 56" version="1.1" xmlns="http://www.w3.org/2000/svg" xmlns:xlink="http://www.w3.org/1999/xlink">
<title>logo_nodejs</title>
<desc>Created using Figma</desc>
<g id="Canvas" transform="translate(-1403 -1632)">
<g id="logo_nodejs">
<g id="Group">
<g id="Vector">
<use xlink:href="#path0_fill" transform="translate(1403 1632)" fill="#8CC84B"/>
</g>
<g id="Vector">
<use xlink:href="#path1_fill" transform="translate(1423.44 1648.69)" fill="#8CC84B"/>
</g>
</g>
</g>
</g>
<defs>
<path id="path0_fill" d="M 22.7441 0.588029C 24.1103 -0.194242 25.8898 -0.197776 27.2548 0.588029C 34.1221 4.46975 40.9916 8.34538 47.8577 12.2294C 49.1492 12.9571 50.013 14.3949 49.9999 15.8835L 49.9999 39.2373C 50.0095 40.7876 49.0603 42.2596 47.6978 42.9709C 40.853 46.8312 34.0118 50.6962 27.1682 54.5565C 25.7738 55.3541 23.9586 55.2927 22.6077 54.4297C 20.5556 53.2397 18.5 52.0556 16.4478 50.8668C 16.0284 50.6167 15.5557 50.4176 15.2596 50.0109C 15.5214 49.658 15.9894 49.614 16.3697 49.4599C 17.2263 49.1874 18.013 48.75 18.7999 48.3256C 18.9989 48.1894 19.2418 48.2416 19.4326 48.3635C 21.1873 49.37 22.9266 50.4057 24.6872 51.4025C 25.0628 51.6194 25.4431 51.3314 25.7642 51.1524C 32.481 47.3549 39.206 43.5717 45.9216 39.7731C 46.1705 39.6533 46.308 39.3891 46.2878 39.1164C 46.2925 31.4125 46.289 23.7071 46.2902 16.0032C 46.3186 15.6938 46.1397 15.4094 45.86 15.2828C 39.039 11.4401 32.2215 7.59157 25.4017 3.74794C 25.2836 3.66668 25.1436 3.62308 25.0002 3.62287C 24.8568 3.62266 24.7167 3.66584 24.5983 3.74676C 17.7785 7.59157 10.9622 11.4436 4.14234 15.2861C 3.86369 15.4129 3.67667 15.6926 3.70984 16.0032C 3.71102 23.7071 3.70984 31.4125 3.70984 39.1176C 3.69801 39.2506 3.72722 39.3841 3.79353 39.5C 3.85985 39.616 3.96008 39.7088 4.08073 39.766C 5.90063 40.7984 7.72289 41.8235 9.54397 42.8523C 10.5699 43.4047 11.8295 43.7329 12.9599 43.3097C 13.9573 42.9518 14.6565 41.9336 14.6375 40.8741C 14.6469 33.2151 14.6328 25.555 14.6446 17.8971C 14.6196 17.5571 14.9421 17.2762 15.2725 17.3082C 16.147 17.3023 17.0226 17.2964 17.897 17.3106C 18.262 17.3023 18.5132 17.6684 18.4681 18.011C 18.4645 25.7185 18.4775 33.4262 18.4622 41.1336C 18.4645 43.1878 17.6209 45.4229 15.7215 46.428C 13.3816 47.6405 10.4894 47.3834 8.17777 46.2207C 6.17654 45.2215 4.26676 44.0423 2.30105 42.9718C 0.935043 42.2646 -0.00944673 40.7866 0.000168896 39.2375L 0.000168896 15.8835C -0.0141564 14.3641 0.884022 12.9002 2.21569 12.1831C 9.05927 8.31966 15.9017 4.45326 22.7441 0.588029Z"/>
<path id="path1_fill" d="M 8.27123 0.0761225C 11.256 -0.116059 14.4513 -0.0377334 17.1372 1.43317C 19.2168 2.56035 20.3696 4.92601 20.4063 7.2371C 20.3483 7.54883 20.0225 7.72079 19.725 7.69939C 18.859 7.69822 17.9928 7.71117 17.1268 7.6935C 16.7595 7.70764 16.546 7.36882 16.4999 7.04393C 16.251 5.93815 15.6482 4.84297 14.6077 4.30962C 13.0106 3.50968 11.1587 3.54992 9.41706 3.56661C 8.14564 3.63413 6.77845 3.74426 5.70131 4.49218C 4.87436 5.05871 4.62318 6.20238 4.91832 7.12344C 5.19658 7.78479 5.95975 7.99817 6.58418 8.19487C 10.1812 9.13595 13.9929 9.04231 17.5213 10.2808C 18.9821 10.7857 20.4111 11.7672 20.9111 13.2972C 21.5651 15.3478 21.2784 17.7988 19.82 19.445C 18.6373 20.7997 16.9147 21.5371 15.1966 21.9375C 12.9111 22.4473 10.5391 22.4603 8.21805 22.2339C 6.0355 21.985 3.76425 21.4114 2.07936 19.9238C 0.638581 18.6724 -0.065125 16.7225 0.00473544 14.8405C 0.0214156 14.5227 0.33775 14.3011 0.642114 14.3272C 1.51419 14.3201 2.38627 14.3178 3.25835 14.3284C 3.60667 14.3035 3.86492 14.6046 3.88278 14.933C 4.04369 15.9866 4.4395 17.0923 5.35789 17.717C 7.13031 18.8608 9.35426 18.7825 11.3837 18.8145C 13.0651 18.7399 14.9525 18.7173 16.3246 17.6057C 17.0485 16.9716 17.263 15.9108 17.0674 14.9982C 16.8554 14.2277 16.0497 13.8686 15.3577 13.6339C 11.8068 12.5102 7.95254 12.9179 4.43597 11.6473C 3.00834 11.1426 1.62781 10.1883 1.07933 8.72116C 0.314005 6.64465 0.664681 4.07621 2.27599 2.48556C 3.84706 0.903348 6.11497 0.29402 8.27123 0.0759263L 8.27123 0.0761225Z"/>
</defs>
</svg>
