<svg width="51" height="45" viewBox="0 0 51 45" version="1.1" xmlns="http://www.w3.org/2000/svg" xmlns:xlink="http://www.w3.org/1999/xlink">
<title>reactsjs</title>
<desc>Created using Figma</desc>
<g id="Canvas" transform="translate(262 -1082)">
<g id="reactsjs">
<g id="Vector">
<use xlink:href="#path0_fill" transform="translate(-240.88 1100.18)" fill="#C9C9C9"/>
</g>
<g id="Group">
<g id="Vector">
<use xlink:href="#path1_stroke" transform="translate(-260 1095.65)" fill="#C9C9C9"/>
</g>
<g id="Vector">
<use xlink:href="#path2_stroke" transform="matrix(0.505146 0.863034 -0.868966 0.494871 -240.479 1080)" fill="#C9C9C9"/>
</g>
<g id="Vector">
<use xlink:href="#path2_stroke" transform="matrix(-0.505146 0.863034 -0.868966 -0.494871 -216.979 1088.85)" fill="#C9C9C9"/>
</g>
</g>
</g>
</g>
<defs>
<path id="path0_fill" d="M 4.37955 8.63991C 6.7983 8.63991 8.75909 6.7058 8.75909 4.31995C 8.75909 1.93411 6.7983 0 4.37955 0C 1.96079 0 0 1.93411 0 4.31995C 0 6.7058 1.96079 8.63991 4.37955 8.63991Z"/>
<path id="path1_stroke" d="M 45.5 8.85064C 45.5 9.49222 45.1602 10.281 44.1557 11.1755C 43.1526 12.0687 41.6158 12.9416 39.5883 13.7052C 35.5442 15.2284 29.8565 16.2013 23.5 16.2013L 23.5 19.2013C 30.1222 19.2013 36.1845 18.1929 40.6457 16.5127C 42.8708 15.6747 44.7756 14.6405 46.1508 13.416C 47.5246 12.1926 48.5 10.6531 48.5 8.85064L 45.5 8.85064ZM 23.5 16.2013C 17.1435 16.2013 11.4558 15.2284 7.41167 13.7052C 5.38416 12.9416 3.84737 12.0687 2.84426 11.1755C 1.8398 10.281 1.5 9.49222 1.5 8.85064L -1.5 8.85064C -1.5 10.6531 -0.524634 12.1926 0.849232 13.416C 2.22445 14.6405 4.12916 15.6747 6.35431 16.5127C 10.8155 18.1929 16.8778 19.2013 23.5 19.2013L 23.5 16.2013ZM 1.5 8.85064C 1.5 8.20906 1.8398 7.42023 2.84426 6.52582C 3.84737 5.63261 5.38416 4.75964 7.41167 3.99604C 11.4558 2.47292 17.1435 1.5 23.5 1.5L 23.5 -1.5C 16.8778 -1.5 10.8155 -0.491638 6.35431 1.18855C 4.12916 2.02659 2.22445 3.06077 0.849233 4.28532C -0.524634 5.50866 -1.5 7.04818 -1.5 8.85064L 1.5 8.85064ZM 23.5 1.5C 29.8565 1.5 35.5442 2.47292 39.5883 3.99604C 41.6158 4.75964 43.1526 5.63261 44.1557 6.52582C 45.1602 7.42023 45.5 8.20906 45.5 8.85064L 48.5 8.85064C 48.5 7.04818 47.5246 5.50866 46.1508 4.28532C 44.7756 3.06077 42.8708 2.02659 40.6457 1.18855C 36.1845 -0.491638 30.1222 -1.5 23.5 -1.5L 23.5 1.5Z"/>
<path id="path2_stroke" d="M 45.0212 8.94236C 45.0212 9.60877 44.6756 10.4121 43.6843 11.3131C 42.6926 12.2145 41.1739 13.0951 39.1701 13.8655C 35.1723 15.4024 29.5479 16.3847 23.2606 16.3847L 23.2606 19.3847C 29.8197 19.3847 35.8256 18.3653 40.2466 16.6657C 42.452 15.8178 44.3398 14.7715 45.7022 13.5331C 47.065 12.2945 48.0212 10.7453 48.0212 8.94236L 45.0212 8.94236ZM 23.2606 16.3847C 16.9733 16.3847 11.3489 15.4024 7.35113 13.8655C 5.34724 13.0951 3.82854 12.2145 2.83684 11.3131C 1.84554 10.4121 1.5 9.60877 1.5 8.94236L -1.5 8.94236C -1.5 10.7453 -0.543775 12.2945 0.819025 13.5331C 2.18143 14.7715 4.06916 15.8178 6.27461 16.6657C 10.6955 18.3653 16.7015 19.3847 23.2606 19.3847L 23.2606 16.3847ZM 1.5 8.94236C 1.5 8.27595 1.84554 7.47261 2.83684 6.57159C 3.82854 5.67022 5.34724 4.78963 7.35113 4.01926C 11.3489 2.48235 16.9733 1.5 23.2606 1.5L 23.2606 -1.5C 16.7015 -1.5 10.6955 -0.480537 6.27461 1.21906C 4.06916 2.06693 2.18143 3.11327 0.819025 4.35159C -0.543775 5.59027 -1.5 7.1394 -1.5 8.94236L 1.5 8.94236ZM 23.2606 1.5C 29.5479 1.5 35.1723 2.48235 39.1701 4.01926C 41.1739 4.78963 42.6926 5.67022 43.6843 6.57159C 44.6756 7.47261 45.0212 8.27595 45.0212 8.94236L 48.0212 8.94236C 48.0212 7.1394 47.065 5.59027 45.7022 4.35159C 44.3398 3.11327 42.452 2.06693 40.2466 1.21906C 35.8256 -0.480537 29.8197 -1.5 23.2606 -1.5L 23.2606 1.5Z"/>
</defs>
</svg>
